{
  "accessors": [
    {
      "bufferView": 0,
      "componentType": 5125,
      "count": 165288,
      "type": "SCALAR"
    },
    {
      "bufferView": 1,
      "componentType": 5126,
      "count": 28740,
      "max": [
        1.82390892505646,
        8.23503684997559,
        8.21152877807617
      ],
      "min": [
        -4.1158561706543,
        -0.0294671058654785,
        -17.3877849578857
      ],
      "type": "VEC3"
    },
    {
      "bufferView": 2,
      "componentType": 5126,
      "count": 28740,
      "type": "VEC3"
    },
    {
      "bufferView": 3,
      "componentType": 5126,
      "count": 28740,
      "type": "VEC2"
    },
    {
      "bufferView": 4,
      "componentType": 5125,
      "count": 3240,
      "type": "SCALAR"
    },
    {
      "bufferView": 5,
      "componentType": 5126,
      "count": 577,
      "max": [
        0.844494104385376,
        7.06342887878418,
        6.46037721633911
      ],
      "min": [
        0.599143147468567,
        6.81783676147461,
        6.21734189987183
      ],
      "type": "VEC3"
    },
    {
      "bufferView": 6,
      "componentType": 5126,
      "count": 577,
      "type": "VEC3"
    },
    {
      "bufferView": 7,
      "componentType": 5126,
      "count": 577,
      "type": "VEC2"
    },
    {
      "bufferView": 8,
      "componentType": 5125,
      "count": 3240,
      "type": "SCALAR"
    },
    {
      "bufferView": 9,
      "componentType": 5126,
      "count": 577,
      "max": [
        -0.130486965179443,
        7.06357669830322,
        6.43938684463501
      ],
      "min": [
        -0.375590920448303,
        6.8177318572998,
        6.19345998764038
      ],
      "type": "VEC3"
    },
    {
      "bufferView": 10,
      "componentType": 5126,
      "count": 577,
      "type": "VEC3"
    },
    {
      "bufferView": 11,
      "componentType": 5126,
      "count": 577,
      "type": "VEC2"
    },
    {
      "bufferView": 12,
      "componentType": 5125,
      "count": 61950,
      "type": "SCALAR"
    },
    {
      "bufferView": 13,
      "componentType": 5126,
      "count": 11937,
      "max": [
        0.784151077270508,
        6.00489854812622,
        8.1181583404541
      ],
      "min": [
        -0.331405937671661,
        5.23721551895142,
        6.57996702194214
      ],
      "type": "VEC3"
    },
    {
      "bufferView": 14,
      "componentType": 5126,
      "count": 11937,
      "type": "VEC3"
    },
    {
      "bufferView": 15,
      "componentType": 5126,
      "count": 11937,
      "type": "VEC2"
    },
    {
      "bufferView": 16,
      "componentType": 5125,
      "count": 11616,
      "type": "SCALAR"
    },
    {
      "bufferView": 17,
      "componentType": 5126,
      "count": 2254,
      "max": [
        1.96975576877594,
        3.83439660072327,
        3.04345512390137
      ],
      "min": [
        -2.2111439704895,
        -0.0108561515808105,
        -6.44999122619629
      ],
      "type": "VEC3"
    },
    {
      "bufferView": 18,
      "componentType": 5126,
      "count": 2254,
      "type": "VEC3"
    },
    {
      "bufferView": 19,
      "componentType": 5126,
      "count": 2254,
      "type": "VEC2"
    }
  ],
  "asset": {
    "generator": "Substance Painter 7.1.1",
    "version": "2.0"
  },
  "bufferViews": [
    {
      "buffer": 0,
      "byteLength": 661152,
      "target": 34963
    },
    {
      "buffer": 0,
      "byteLength": 344880,
      "byteOffset": 661152,
      "target": 34962
    },
    {
      "buffer": 0,
      "byteLength": 344880,
      "byteOffset": 1006032,
      "target": 34962
    },
    {
      "buffer": 0,
      "byteLength": 229920,
      "byteOffset": 1350912,
      "target": 34962
    },
    {
      "buffer": 0,
      "byteLength": 12960,
      "byteOffset": 1580832,
      "target": 34963
    },
    {
      "buffer": 0,
      "byteLength": 6924,
      "byteOffset": 1593792,
      "target": 34962
    },
    {
      "buffer": 0,
      "byteLength": 6924,
      "byteOffset": 1600716,
      "target": 34962
    },
    {
      "buffer": 0,
      "byteLength": 4616,
      "byteOffset": 1607640,
      "target": 34962
    },
    {
      "buffer": 0,
      "byteLength": 12960,
      "byteOffset": 1612256,
      "target": 34963
    },
    {
      "buffer": 0,
      "byteLength": 6924,
      "byteOffset": 1625216,
      "target": 34962
    },
    {
      "buffer": 0,
      "byteLength": 6924,
      "byteOffset": 1632140,
      "target": 34962
    },
    {
      "buffer": 0,
      "byteLength": 4616,
      "byteOffset": 1639064,
      "target": 34962
    },
    {
      "buffer": 0,
      "byteLength": 247800,
      "byteOffset": 1643680,
      "target": 34963
    },
    {
      "buffer": 0,
      "byteLength": 143244,
      "byteOffset": 1891480,
      "target": 34962
    },
    {
      "buffer": 0,
      "byteLength": 143244,
      "byteOffset": 2034724,
      "target": 34962
    },
    {
      "buffer": 0,
      "byteLength": 95496,
      "byteOffset": 2177968,
      "target": 34962
    },
    {
      "buffer": 0,
      "byteLength": 46464,
      "byteOffset": 2273464,
      "target": 34963
    },
    {
      "buffer": 0,
      "byteLength": 27048,
      "byteOffset": 2319928,
      "target": 34962
    },
    {
      "buffer": 0,
      "byteLength": 27048,
      "byteOffset": 2346976,
      "target": 34962
    },
    {
      "buffer": 0,
      "byteLength": 18032,
      "byteOffset": 2374024,
      "target": 34962
    }
  ],
  "buffers": [
    {
      "byteLength": 2392056,
      "uri": "trex.bin"
    }
  ],
  "images": [
    {
      "uri": "clawColor_baseColor.png"
    },
    {
      "uri": "eyeColor_baseColor.png"
    },
    {
      "uri": "SkinColor_baseColor.png"
    },
    {
      "uri": "teethTexture_baseColor.png"
    }
  ],
  "materials": [
    {
      "alphaMode": "OPAQUE",
      "name": "clawColor",
      "pbrMetallicRoughness": {
        "baseColorTexture": {
          "index": 0
        }
      }
    },
    {
      "alphaMode": "OPAQUE",
      "name": "eyeColor",
      "pbrMetallicRoughness": {
        "baseColorTexture": {
          "index": 1
        }
      }
    },
    {
      "alphaMode": "OPAQUE",
      "name": "SkinColor",
      "pbrMetallicRoughness": {
        "baseColorTexture": {
          "index": 2
        }
      }
    },
    {
      "alphaMode": "OPAQUE",
      "name": "teethTexture",
      "pbrMetallicRoughness": {
        "baseColorTexture": {
          "index": 3
        }
      }
    }
  ],
  "meshes": [
    {
      "name": "Skin",
      "primitives": [
        {
          "attributes": {
            "NORMAL": 2,
            "POSITION": 1,
            "TEXCOORD_0": 3
          },
          "indices": 0,
          "material": 2,
          "mode": 4
        }
      ]
    },
    {
      "name": "R_eye",
      "primitives": [
        {
          "attributes": {
            "NORMAL": 6,
            "POSITION": 5,
            "TEXCOORD_0": 7
          },
          "indices": 4,
          "material": 1,
          "mode": 4
        }
      ]
    },
    {
      "name": "L_Eye1",
      "primitives": [
        {
          "attributes": {
            "NORMAL": 10,
            "POSITION": 9,
            "TEXCOORD_0": 11
          },
          "indices": 8,
          "material": 1,
          "mode": 4
        }
      ]
    },
    {
      "name": "teeth1",
      "primitives": [
        {
          "attributes": {
            "NORMAL": 14,
            "POSITION": 13,
            "TEXCOORD_0": 15
          },
          "indices": 12,
          "material": 3,
          "mode": 4
        }
      ]
    },
    {
      "name": "claws1",
      "primitives": [
        {
          "attributes": {
            "NORMAL": 18,
            "POSITION": 17,
            "TEXCOORD_0": 19
          },
          "indices": 16,
          "material": 0,
          "mode": 4
        }
      ]
    }
  ],
  "nodes": [
    {
      "children": [
        1
      ],
      "name": "RootNode"
    },
    {
      "children": [
        2,
        4,
        6,
        7,
        9,
        10,
        12
      ],
      "name": "trexGeoGrp"
    },
    {
      "children": [
        3
      ],
      "name": "Skin"
    },
    {
      "mesh": 0,
      "name": "Skin"
    },
    {
      "children": [
        5
      ],
      "name": "R_eye"
    },
    {
      "mesh": 1,
      "name": "R_eye"
    },
    {
      "name": "L_black"
    },
    {
      "children": [
        8
      ],
      "name": "L_Eye1"
    },
    {
      "mesh": 2,
      "name": "L_Eye1"
    },
    {
      "name": "R_Black"
    },
    {
      "children": [
        11
      ],
      "name": "teeth1"
    },
    {
      "mesh": 3,
      "name": "teeth1"
    },
    {
      "children": [
        13
      ],
      "name": "claws1"
    },
    {
      "mesh": 4,
      "name": "claws1"
    }
  ],
  "samplers": [
    {
      "magFilter": 9729,
      "minFilter": 9985,
      "wrapS": 10497,
      "wrapT": 10497
    }
  ],
  "scene": 0,
  "scenes": [
    {
      "name": "Scene",
      "nodes": [
        0
      ]
    }
  ],
  "textures": [
    {
      "sampler": 0,
      "source": 0
    },
    {
      "sampler": 0,
      "source": 1
    },
    {
      "sampler": 0,
      "source": 2
    },
    {
      "sampler": 0,
      "source": 3
    }
  ]
}