{"asset":{"version":"2.0","generator":"babylon.js glTF exporter for Maya 2018 v20210308.2"},"scene":0,"scenes":[{"nodes":[0]}],"nodes":[{"children":[1,2,3,4,5],"name":"trexGeoGrp"},{"mesh":0,"name":"Skin"},{"mesh":1,"name":"R_eye"},{"mesh":2,"name":"L_Eye1"},{"mesh":3,"name":"teeth1"},{"mesh":4,"name":"claws1"}],"meshes":[{"primitives":[{"attributes":{"POSITION":1,"NORMAL":2,"COLOR_0":3,"TEXCOORD_0":4},"indices":0}],"name":"Skin"},{"primitives":[{"attributes":{"POSITION":6,"NORMAL":7,"COLOR_0":8,"TEXCOORD_0":9},"indices":5}],"name":"R_eye"},{"primitives":[{"attributes":{"POSITION":11,"NORMAL":12,"COLOR_0":13,"TEXCOORD_0":14},"indices":10}],"name":"L_Eye1"},{"primitives":[{"attributes":{"POSITION":16,"NORMAL":17,"COLOR_0":18,"TEXCOORD_0":19},"indices":15}],"name":"teeth1"},{"primitives":[{"attributes":{"POSITION":21,"NORMAL":22,"COLOR_0":23,"TEXCOORD_0":24},"indices":20}],"name":"claws1"}],"accessors":[{"bufferView":0,"componentType":5123,"count":165288,"type":"SCALAR","name":"accessorIndices"},{"bufferView":1,"componentType":5126,"count":28683,"max":[0.01823909,0.08235037,0.0821152851],"min":[-0.04115856,-0.00029467,-0.173877865],"type":"VEC3","name":"accessorPositions"},{"bufferView":1,"byteOffset":344196,"componentType":5126,"count":28683,"type":"VEC3","name":"accessorNormals"},{"bufferView":2,"componentType":5126,"count":28683,"type":"VEC4","name":"accessorColors"},{"bufferView":3,"componentType":5126,"count":28683,"type":"VEC2","name":"accessorUVs"},{"bufferView":0,"byteOffset":330576,"componentType":5123,"count":3240,"type":"SCALAR","name":"accessorIndices"},{"bufferView":1,"byteOffset":688392,"componentType":5126,"count":553,"max":[0.00844494,0.07063429,0.06460377],"min":[0.00599143,0.06817837,0.06217342],"type":"VEC3","name":"accessorPositions"},{"bufferView":1,"byteOffset":695028,"componentType":5126,"count":553,"type":"VEC3","name":"accessorNormals"},{"bufferView":2,"byteOffset":458928,"componentType":5126,"count":553,"type":"VEC4","name":"accessorColors"},{"bufferView":3,"byteOffset":229464,"componentType":5126,"count":553,"type":"VEC2","name":"accessorUVs"},{"bufferView":0,"byteOffset":337056,"componentType":5123,"count":3240,"type":"SCALAR","name":"accessorIndices"},{"bufferView":1,"byteOffset":701664,"componentType":5126,"count":553,"max":[-0.00130486989,0.07063577,0.06439387],"min":[-0.00375591,0.06817733,0.0619345978],"type":"VEC3","name":"accessorPositions"},{"bufferView":1,"byteOffset":708300,"componentType":5126,"count":553,"type":"VEC3","name":"accessorNormals"},{"bufferView":2,"byteOffset":467776,"componentType":5126,"count":553,"type":"VEC4","name":"accessorColors"},{"bufferView":3,"byteOffset":233888,"componentType":5126,"count":553,"type":"VEC2","name":"accessorUVs"},{"bufferView":0,"byteOffset":343536,"componentType":5123,"count":61950,"type":"SCALAR","name":"accessorIndices"},{"bufferView":1,"byteOffset":714936,"componentType":5126,"count":11853,"max":[0.00784151,0.06004899,0.08118158],"min":[-0.00331406,0.0523721576,0.06579967],"type":"VEC3","name":"accessorPositions"},{"bufferView":1,"byteOffset":857172,"componentType":5126,"count":11853,"type":"VEC3","name":"accessorNormals"},{"bufferView":2,"byteOffset":476624,"componentType":5126,"count":11853,"type":"VEC4","name":"accessorColors"},{"bufferView":3,"byteOffset":238312,"componentType":5126,"count":11853,"type":"VEC2","name":"accessorUVs"},{"bufferView":0,"byteOffset":467436,"componentType":5123,"count":11616,"type":"SCALAR","name":"accessorIndices"},{"bufferView":1,"byteOffset":999408,"componentType":5126,"count":2144,"max":[0.01969756,0.03834397,0.0304345489],"min":[-0.02211144,-0.000108559994,-0.06449992],"type":"VEC3","name":"accessorPositions"},{"bufferView":1,"byteOffset":1025136,"componentType":5126,"count":2144,"type":"VEC3","name":"accessorNormals"},{"bufferView":2,"byteOffset":666272,"componentType":5126,"count":2144,"type":"VEC4","name":"accessorColors"},{"bufferView":3,"byteOffset":333136,"componentType":5126,"count":2144,"type":"VEC2","name":"accessorUVs"}],"bufferViews":[{"buffer":0,"byteLength":490668,"name":"bufferViewScalar"},{"buffer":0,"byteOffset":490668,"byteLength":1050864,"byteStride":12,"name":"bufferViewFloatVec3"},{"buffer":0,"byteOffset":1541532,"byteLength":700576,"byteStride":16,"name":"bufferViewFloatVec4"},{"buffer":0,"byteOffset":2242108,"byteLength":350288,"byteStride":8,"name":"bufferViewFloatVec2"}],"buffers":[{"uri":"basictrex.bin","byteLength":2592396}]}